{
  "accessors": [
    {
      "bufferView": 2,
      "componentType": 5126,
      "count": 30336,
      "max": [
        428.0593566894531,
        1.0,
        1.0000360012054443
      ],
      "min": [
        -458.6670227050781,
        -1.0217077732086182,
        -1.0000505447387695
      ],
      "type": "VEC3"
    },
    {
      "bufferView": 2,
      "byteOffset": 364032,
      "componentType": 5126,
      "count": 30336,
      "max": [
        1.0,
        1.0,
        0.9951852560043335
      ],
      "min": [
        -1.0,
        -1.0,
        -0.9951852560043335
      ],
      "type": "VEC3"
    },
    {
      "bufferView": 1,
      "componentType": 5126,
      "count": 30336,
      "max": [
        1.0,
        1.0
      ],
      "min": [
        0.0,
        0.01000000536441803
      ],
      "type": "VEC2"
    },
    {
      "bufferView": 0,
      "componentType": 5125,
      "count": 58776,
      "type": "SCALAR"
    },
    {
      "bufferView": 2,
      "byteOffset": 728064,
      "componentType": 5126,
      "count": 132,
      "max": [
        -478.3987731933594,
        0.12807919085025787,
        56.21599578857422
      ],
      "min": [
        -1948.788330078125,
        -0.15675102174282074,
        -56.21599578857422
      ],
      "type": "VEC3"
    },
    {
      "bufferView": 2,
      "byteOffset": 729648,
      "componentType": 5126,
      "count": 132,
      "max": [
        1.0,
        0.0,
        -0.0
      ],
      "min": [
        -1.0,
        0.0,
        -7.632353344888543e-07
      ],
      "type": "VEC3"
    },
    {
      "bufferView": 1,
      "byteOffset": 242688,
      "componentType": 5126,
      "count": 132,
      "max": [
        1.0,
        0.5
      ],
      "min": [
        0.0,
        0.01000000536441803
      ],
      "type": "VEC2"
    },
    {
      "bufferView": 0,
      "byteOffset": 235104,
      "componentType": 5125,
      "count": 372,
      "type": "SCALAR"
    },
    {
      "bufferView": 2,
      "byteOffset": 731232,
      "componentType": 5126,
      "count": 128,
      "max": [
        -478.3987731933594,
        0.023249804973602295,
        14.836288452148438
      ],
      "min": [
        -1291.253173828125,
        -0.0519215390086174,
        -14.836287498474121
      ],
      "type": "VEC3"
    },
    {
      "bufferView": 2,
      "byteOffset": 732768,
      "componentType": 5126,
      "count": 128,
      "max": [
        2.365454221386898e-10,
        1.0,
        0.025713132694363594
      ],
      "min": [
        -2.3704843643557183e-10,
        -1.0,
        -0.025713110342621803
      ],
      "type": "VEC3"
    },
    {
      "bufferView": 1,
      "byteOffset": 243744,
      "componentType": 5126,
      "count": 128,
      "max": [
        1.0,
        1.0
      ],
      "min": [
        0.0,
        0.5
      ],
      "type": "VEC2"
    },
    {
      "bufferView": 0,
      "byteOffset": 236592,
      "componentType": 5125,
      "count": 192,
      "type": "SCALAR"
    },
    {
      "bufferView": 2,
      "byteOffset": 734304,
      "componentType": 5126,
      "count": 128,
      "max": [
        -1291.253173828125,
        0.06518622487783432,
        31.390047073364258
      ],
      "min": [
        -1368.59814453125,
        -0.09385808557271957,
        -31.390047073364258
      ],
      "type": "VEC3"
    },
    {
      "bufferView": 2,
      "byteOffset": 735840,
      "componentType": 5126,
      "count": 128,
      "max": [
        -0.000542199588380754,
        0.9999998211860657,
        0.025712750852108
      ],
      "min": [
        -0.00550317345187068,
        -0.9999998211860657,
        -0.02571268565952778
      ],
      "type": "VEC3"
    },
    {
      "bufferView": 1,
      "byteOffset": 244768,
      "componentType": 5126,
      "count": 128,
      "max": [
        1.0,
        0.5
      ],
      "min": [
        0.0,
        0.5
      ],
      "type": "VEC2"
    },
    {
      "bufferView": 0,
      "byteOffset": 237360,
      "componentType": 5125,
      "count": 192,
      "type": "SCALAR"
    },
    {
      "bufferView": 2,
      "byteOffset": 737376,
      "componentType": 5126,
      "count": 384,
      "max": [
        -1368.59814453125,
        0.12807919085025787,
        56.21599578857422
      ],
      "min": [
        -1948.788330078125,
        -0.15675102174282074,
        -56.21599578857422
      ],
      "type": "VEC3"
    },
    {
      "bufferView": 2,
      "byteOffset": 741984,
      "componentType": 5126,
      "count": 384,
      "max": [
        2.6419064158567096e-10,
        1.0,
        0.02571306936442852
      ],
      "min": [
        -0.001997384475544095,
        -1.0,
        -0.02571304328739643
      ],
      "type": "VEC3"
    },
    {
      "bufferView": 1,
      "byteOffset": 245792,
      "componentType": 5126,
      "count": 384,
      "max": [
        1.0,
        0.5
      ],
      "min": [
        0.0,
        0.5
      ],
      "type": "VEC2"
    },
    {
      "bufferView": 0,
      "byteOffset": 238128,
      "componentType": 5125,
      "count": 576,
      "type": "SCALAR"
    },
    {
      "bufferView": 2,
      "byteOffset": 746592,
      "componentType": 5126,
      "count": 256,
      "max": [
        -1871.748046875,
        0.12807919085025787,
        56.21599578857422
      ],
      "min": [
        -1903.114013671875,
        -0.15675102174282074,
        -56.21599578857422
      ],
      "type": "VEC3"
    },
    {
      "bufferView": 2,
      "byteOffset": 749664,
      "componentType": 5126,
      "count": 256,
      "max": [
        0.01624508760869503,
        0.9999987483024597,
        0.02570968121290207
      ],
      "min": [
        -0.020519506186246872,
        -0.9999987483024597,
        -0.02570965699851513
      ],
      "type": "VEC3"
    },
    {
      "bufferView": 1,
      "byteOffset": 248864,
      "componentType": 5126,
      "count": 256,
      "max": [
        1.0,
        0.5
      ],
      "min": [
        0.0,
        0.5
      ],
      "type": "VEC2"
    },
    {
      "bufferView": 0,
      "byteOffset": 240432,
      "componentType": 5125,
      "count": 384,
      "type": "SCALAR"
    },
    {
      "bufferView": 2,
      "byteOffset": 752736,
      "componentType": 5126,
      "count": 132,
      "max": [
        444.5757751464844,
        1.0277438163757324,
        16.105276107788086
      ],
      "min": [
        -483.0339050292969,
        -1.0347578525543213,
        -16.105276107788086
      ],
      "type": "VEC3"
    },
    {
      "bufferView": 2,
      "byteOffset": 754320,
      "componentType": 5126,
      "count": 132,
      "max": [
        0.0,
        1.0,
        -0.0
      ],
      "min": [
        0.0,
        1.0,
        -0.0
      ],
      "type": "VEC3"
    },
    {
      "bufferView": 1,
      "byteOffset": 250912,
      "componentType": 5126,
      "count": 132,
      "max": [
        1.0,
        1.0
      ],
      "min": [
        0.0,
        0.5
      ],
      "type": "VEC2"
    },
    {
      "bufferView": 0,
      "byteOffset": 241968,
      "componentType": 5125,
      "count": 576,
      "type": "SCALAR"
    }
  ],
  "asset": {
    "extras": {
      "author": "timtime (https://sketchfab.com/timislav)",
      "license": "CC-BY-4.0 (http://creativecommons.org/licenses/by/4.0/)",
      "source": "https://sketchfab.com/3d-models/badminton-racket-455a5ed487e7450b8a52f39897193ddf",
      "title": "badminton racket"
    },
    "generator": "Sketchfab-13.74.0",
    "version": "2.0"
  },
  "bufferViews": [
    {
      "buffer": 0,
      "byteLength": 244272,
      "name": "floatBufferViews",
      "target": 34963
    },
    {
      "buffer": 0,
      "byteLength": 251968,
      "byteOffset": 244272,
      "byteStride": 8,
      "name": "floatBufferViews",
      "target": 34962
    },
    {
      "buffer": 0,
      "byteLength": 755904,
      "byteOffset": 496240,
      "byteStride": 12,
      "name": "floatBufferViews",
      "target": 34962
    }
  ],
  "buffers": [
    {
      "byteLength": 1252144,
      "uri": "scene.bin"
    }
  ],
  "materials": [
    {
      "doubleSided": true,
      "name": "Material.006",
      "pbrMetallicRoughness": {
        "baseColorFactor": [
          0.8,
          0.00779564,
          0.00779564,
          1.0
        ],
        "metallicFactor": 0.0,
        "roughnessFactor": 0.5
      }
    },
    {
      "doubleSided": true,
      "name": "Material.001",
      "pbrMetallicRoughness": {
        "baseColorFactor": [
          0.8,
          0.8,
          0.8,
          1.0
        ],
        "metallicFactor": 0.0,
        "roughnessFactor": 0.5
      }
    },
    {
      "doubleSided": true,
      "name": "Material.002",
      "pbrMetallicRoughness": {
        "baseColorFactor": [
          0.0,
          0.0,
          0.0,
          1.0
        ],
        "metallicFactor": 0.0,
        "roughnessFactor": 0.5
      }
    },
    {
      "doubleSided": true,
      "name": "Material.003",
      "pbrMetallicRoughness": {
        "baseColorFactor": [
          0.209702,
          0.506813,
          0.8,
          1.0
        ],
        "metallicFactor": 0.0,
        "roughnessFactor": 0.5
      }
    },
    {
      "doubleSided": true,
      "name": "Material.004",
      "pbrMetallicRoughness": {
        "baseColorFactor": [
          0.335745,
          0.8,
          0.272124,
          1.0
        ],
        "metallicFactor": 0.0,
        "roughnessFactor": 0.5
      }
    },
    {
      "doubleSided": true,
      "name": "Material.005",
      "pbrMetallicRoughness": {
        "baseColorFactor": [
          0.8,
          0.0113304,
          0.00950104,
          1.0
        ],
        "metallicFactor": 0.0,
        "roughnessFactor": 0.5
      }
    },
    {
      "doubleSided": true,
      "name": "Material.007",
      "pbrMetallicRoughness": {
        "baseColorFactor": [
          0.8,
          0.582936,
          0.0907919,
          1.0
        ],
        "metallicFactor": 0.0,
        "roughnessFactor": 0.5
      }
    }
  ],
  "meshes": [
    {
      "name": "Object_0",
      "primitives": [
        {
          "attributes": {
            "NORMAL": 1,
            "POSITION": 0,
            "TEXCOORD_0": 2
          },
          "indices": 3,
          "material": 0,
          "mode": 4
        }
      ]
    },
    {
      "name": "Object_1",
      "primitives": [
        {
          "attributes": {
            "NORMAL": 5,
            "POSITION": 4,
            "TEXCOORD_0": 6
          },
          "indices": 7,
          "material": 1,
          "mode": 4
        }
      ]
    },
    {
      "name": "Object_2",
      "primitives": [
        {
          "attributes": {
            "NORMAL": 9,
            "POSITION": 8,
            "TEXCOORD_0": 10
          },
          "indices": 11,
          "material": 2,
          "mode": 4
        }
      ]
    },
    {
      "name": "Object_3",
      "primitives": [
        {
          "attributes": {
            "NORMAL": 13,
            "POSITION": 12,
            "TEXCOORD_0": 14
          },
          "indices": 15,
          "material": 3,
          "mode": 4
        }
      ]
    },
    {
      "name": "Object_4",
      "primitives": [
        {
          "attributes": {
            "NORMAL": 17,
            "POSITION": 16,
            "TEXCOORD_0": 18
          },
          "indices": 19,
          "material": 4,
          "mode": 4
        }
      ]
    },
    {
      "name": "Object_5",
      "primitives": [
        {
          "attributes": {
            "NORMAL": 21,
            "POSITION": 20,
            "TEXCOORD_0": 22
          },
          "indices": 23,
          "material": 5,
          "mode": 4
        }
      ]
    },
    {
      "name": "Object_6",
      "primitives": [
        {
          "attributes": {
            "NORMAL": 25,
            "POSITION": 24,
            "TEXCOORD_0": 26
          },
          "indices": 27,
          "material": 6,
          "mode": 4
        }
      ]
    }
  ],
  "nodes": [
    {
      "children": [
        1
      ],
      "matrix": [
        1.0,
        0.0,
        0.0,
        0.0,
        0.0,
        2.220446049250313e-16,
        -1.0,
        0.0,
        0.0,
        1.0,
        2.220446049250313e-16,
        0.0,
        0.0,
        0.0,
        0.0,
        1.0
      ],
      "name": "Sketchfab_model"
    },
    {
      "children": [
        2
      ],
      "name": "root"
    },
    {
      "children": [
        3
      ],
      "matrix": [
        1.0,
        0.0,
        0.0,
        0.0,
        0.0,
        2.220446049250313e-16,
        1.0,
        0.0,
        0.0,
        -1.0,
        2.220446049250313e-16,
        0.0,
        0.0,
        0.0,
        0.0,
        1.0
      ],
      "name": "GLTF_SceneRootNode"
    },
    {
      "children": [
        4,
        5,
        6,
        7,
        8,
        9,
        10
      ],
      "matrix": [
        -1.6718738545525578e-10,
        0.0019833913538604905,
        0.0,
        -0.0,
        -0.7829107046127293,
        -6.59944359918497e-08,
        -0.0,
        -0.0,
        0.0,
        0.0,
        -0.0019833913538604975,
        -0.0,
        -0.0027456977404654026,
        3.9177236557006836,
        0.0,
        1.0
      ],
      "name": "Cylinder.025_2"
    },
    {
      "mesh": 0,
      "name": "Object_4"
    },
    {
      "mesh": 1,
      "name": "Object_5"
    },
    {
      "mesh": 2,
      "name": "Object_6"
    },
    {
      "mesh": 3,
      "name": "Object_7"
    },
    {
      "mesh": 4,
      "name": "Object_8"
    },
    {
      "mesh": 5,
      "name": "Object_9"
    },
    {
      "mesh": 6,
      "name": "Object_10"
    }
  ],
  "scene": 0,
  "scenes": [
    {
      "name": "Sketchfab_Scene",
      "nodes": [
        0
      ]
    }
  ]
}
