{
  "accessors": [
    {
      "bufferView": 2,
      "componentType": 5126,
      "count": 30171,
      "max": [
        0.03475383669137955,
        0.04151191562414169,
        0.03799751400947571
      ],
      "min": [
        -0.03475383669137955,
        -0.03034004010260105,
        -0.009783171117305756
      ],
      "type": "VEC3"
    },
    {
      "bufferView": 2,
      "byteOffset": 362052,
      "componentType": 5126,
      "count": 30171,
      "max": [
        0.9999058842658997,
        0.9999991059303284,
        0.9999865889549255
      ],
      "min": [
        -0.9999962449073792,
        -0.9977750182151794,
        -0.9999655485153198
      ],
      "type": "VEC3"
    },
    {
      "bufferView": 1,
      "componentType": 5126,
      "count": 30171,
      "max": [
        0.9989714622497559,
        0.9998584985733032
      ],
      "min": [
        1.5899810023256578e-05,
        0.00023102827253751457
      ],
      "type": "VEC2"
    },
    {
      "bufferView": 1,
      "byteOffset": 241368,
      "componentType": 5126,
      "count": 30171,
      "max": [
        0.9989714622497559,
        0.9998584985733032
      ],
      "min": [
        1.5899810023256578e-05,
        0.00023102827253751457
      ],
      "type": "VEC2"
    },
    {
      "bufferView": 1,
      "byteOffset": 482736,
      "componentType": 5126,
      "count": 30171,
      "max": [
        0.9989714622497559,
        0.9998584985733032
      ],
      "min": [
        1.5899810023256578e-05,
        0.00023102827253751457
      ],
      "type": "VEC2"
    },
    {
      "bufferView": 0,
      "componentType": 5125,
      "count": 156174,
      "type": "SCALAR"
    }
  ],
  "asset": {
    "extras": {
      "author": "makeitmovemedia (https://sketchfab.com/tleeds)",
      "license": "CC-BY-NC-SA-4.0 (http://creativecommons.org/licenses/by-nc-sa/4.0/)",
      "source": "https://sketchfab.com/3d-models/norwegian-troll-dc542adabcd343149620ffa15425e0f2",
      "title": "Norwegian Troll"
    },
    "generator": "Sketchfab-12.65.0",
    "version": "2.0"
  },
  "bufferViews": [
    {
      "buffer": 0,
      "byteLength": 624696,
      "name": "floatBufferViews",
      "target": 34963
    },
    {
      "buffer": 0,
      "byteLength": 724104,
      "byteOffset": 624696,
      "byteStride": 8,
      "name": "floatBufferViews",
      "target": 34962
    },
    {
      "buffer": 0,
      "byteLength": 724104,
      "byteOffset": 1348800,
      "byteStride": 12,
      "name": "floatBufferViews",
      "target": 34962
    }
  ],
  "buffers": [
    {
      "byteLength": 2072904,
      "uri": "scene.bin"
    }
  ],
  "extensionsUsed": [
    "KHR_materials_unlit"
  ],
  "images": [
    {
      "uri": "textures/material_0_baseColor.jpeg"
    }
  ],
  "materials": [
    {
      "extensions": {
        "KHR_materials_unlit": {}
      },
      "name": "material_0",
      "pbrMetallicRoughness": {
        "baseColorTexture": {
          "index": 0
        },
        "metallicFactor": 0.0
      }
    }
  ],
  "meshes": [
    {
      "name": "Object_0",
      "primitives": [
        {
          "attributes": {
            "NORMAL": 1,
            "POSITION": 0,
            "TEXCOORD_0": 2,
            "TEXCOORD_1": 3,
            "TEXCOORD_2": 4
          },
          "indices": 5,
          "material": 0,
          "mode": 4
        }
      ]
    }
  ],
  "nodes": [
    {
      "children": [
        1
      ],
      "matrix": [
        1.0,
        0.0,
        0.0,
        0.0,
        0.0,
        2.220446049250313e-16,
        -1.0,
        0.0,
        0.0,
        1.0,
        2.220446049250313e-16,
        0.0,
        0.0,
        0.0,
        0.0,
        1.0
      ],
      "name": "Sketchfab_model"
    },
    {
      "children": [
        2
      ],
      "name": "root"
    },
    {
      "children": [
        3
      ],
      "matrix": [
        1.0,
        0.0,
        0.0,
        0.0,
        0.0,
        2.220446049250313e-16,
        1.0,
        0.0,
        0.0,
        -1.0,
        2.220446049250313e-16,
        0.0,
        0.0,
        0.0,
        0.0,
        1.0
      ],
      "name": "GLTF_SceneRootNode"
    },
    {
      "children": [
        4
      ],
      "name": "_0"
    },
    {
      "mesh": 0,
      "name": "Object_4"
    }
  ],
  "samplers": [
    {
      "magFilter": 9729,
      "minFilter": 9987,
      "wrapS": 10497,
      "wrapT": 10497
    }
  ],
  "scene": 0,
  "scenes": [
    {
      "name": "Sketchfab_Scene",
      "nodes": [
        0
      ]
    }
  ],
  "textures": [
    {
      "sampler": 0,
      "source": 0
    }
  ]
}
