{
  "accessors": [
    {
      "bufferView": 2,
      "componentType": 5126,
      "count": 21795,
      "max": [
        0.8710500001907349,
        2.9072999954223633,
        1.1487900018692017
      ],
      "min": [
        -0.8710299730300903,
        -1.0804200172424316,
        -0.784250020980835
      ],
      "type": "VEC3"
    },
    {
      "bufferView": 2,
      "byteOffset": 261540,
      "componentType": 5126,
      "count": 21795,
      "max": [
        0.9999246597290039,
        0.9999675154685974,
        0.9999409914016724
      ],
      "min": [
        -0.9999508261680603,
        -0.9999707937240601,
        -0.9999875426292419
      ],
      "type": "VEC3"
    },
    {
      "bufferView": 1,
      "componentType": 5126,
      "count": 21795,
      "max": [
        0.9444626569747925,
        0.9980080723762512
      ],
      "min": [
        0.0018851441564038396,
        0.0019921448547393084
      ],
      "type": "VEC2"
    },
    {
      "bufferView": 0,
      "componentType": 5125,
      "count": 76326,
      "type": "SCALAR"
    }
  ],
  "asset": {
    "extras": {
      "author": "sanjus (https://sketchfab.com/sanjus)",
      "license": "CC-BY-NC-SA-4.0 (http://creativecommons.org/licenses/by-nc-sa/4.0/)",
      "source": "https://sketchfab.com/3d-models/sculpture-of-singapore-merlion-d147b7a436b44a0691a05072f88191ae",
      "title": "Sculpture of Singapore Merlion"
    },
    "generator": "Sketchfab-12.68.0",
    "version": "2.0"
  },
  "bufferViews": [
    {
      "buffer": 0,
      "byteLength": 305304,
      "name": "floatBufferViews",
      "target": 34963
    },
    {
      "buffer": 0,
      "byteLength": 174360,
      "byteOffset": 305304,
      "byteStride": 8,
      "name": "floatBufferViews",
      "target": 34962
    },
    {
      "buffer": 0,
      "byteLength": 523080,
      "byteOffset": 479664,
      "byteStride": 12,
      "name": "floatBufferViews",
      "target": 34962
    }
  ],
  "buffers": [
    {
      "byteLength": 1002744,
      "uri": "scene.bin"
    }
  ],
  "materials": [
    {
      "doubleSided": true,
      "name": "PolySphere_1_blinn",
      "pbrMetallicRoughness": {
        "baseColorFactor": [
          0.9,
          0.9,
          0.9,
          1.0
        ],
        "metallicFactor": 0.0,
        "roughnessFactor": 0.6
      }
    }
  ],
  "meshes": [
    {
      "name": "PolySphere_1_PolySphere_1_blinn_0",
      "primitives": [
        {
          "attributes": {
            "NORMAL": 1,
            "POSITION": 0,
            "TEXCOORD_0": 2
          },
          "indices": 3,
          "material": 0,
          "mode": 4
        }
      ]
    }
  ],
  "nodes": [
    {
      "children": [
        1
      ],
      "matrix": [
        0.22278852760791779,
        0.0,
        0.0,
        0.0,
        0.0,
        4.9468990594529535e-17,
        -0.22278852760791779,
        0.0,
        0.0,
        0.22278852760791779,
        4.9468990594529535e-17,
        0.0,
        0.0,
        0.0,
        0.0,
        1.0
      ],
      "name": "Sketchfab_model"
    },
    {
      "children": [
        2
      ],
      "matrix": [
        1.0,
        0.0,
        0.0,
        0.0,
        0.0,
        0.0,
        1.0,
        0.0,
        0.0,
        -1.0,
        0.0,
        0.0,
        0.0,
        0.0,
        0.0,
        1.0
      ],
      "name": "268eb1a1197b42deb64905acab544c7d.fbx"
    },
    {
      "children": [
        3
      ],
      "name": "RootNode"
    },
    {
      "children": [
        4
      ],
      "matrix": [
        5.0,
        0.0,
        0.0,
        0.0,
        0.0,
        5.0,
        0.0,
        0.0,
        0.0,
        0.0,
        5.0,
        0.0,
        0.0,
        0.0,
        0.0,
        1.0
      ],
      "name": "PolySphere_1"
    },
    {
      "mesh": 0,
      "name": "PolySphere_1_PolySphere_1_blinn_0"
    }
  ],
  "scene": 0,
  "scenes": [
    {
      "name": "Sketchfab_Scene",
      "nodes": [
        0
      ]
    }
  ]
}
