{
  "accessors": [
    {
      "bufferView": 2,
      "componentType": 5126,
      "count": 672,
      "max": [
        8.62756061553955,
        -27.939807891845703,
        7.5665178298950195
      ],
      "min": [
        -3.2379560470581055,
        -66.8299560546875,
        -4.380161762237549
      ],
      "type": "VEC3"
    },
    {
      "bufferView": 2,
      "byteOffset": 8064,
      "componentType": 5126,
      "count": 672,
      "max": [
        0.9813056588172913,
        0.9978988766670227,
        0.9867860078811646
      ],
      "min": [
        -0.9764422178268433,
        -0.9955959916114807,
        -0.9985926151275635
      ],
      "type": "VEC3"
    },
    {
      "bufferView": 1,
      "componentType": 5126,
      "count": 672,
      "max": [
        0.9920769929885864,
        0.9473789930343628
      ],
      "min": [
        0.00012199999764561653,
        0.00037299998803064227
      ],
      "type": "VEC2"
    },
    {
      "bufferView": 0,
      "componentType": 5125,
      "count": 672,
      "type": "SCALAR"
    },
    {
      "bufferView": 2,
      "byteOffset": 16128,
      "componentType": 5126,
      "count": 65532,
      "max": [
        8.801836967468262,
        -27.856658935546875,
        7.686171054840088
      ],
      "min": [
        -3.1768760681152344,
        -66.91401672363281,
        -4.511293888092041
      ],
      "type": "VEC3"
    },
    {
      "bufferView": 2,
      "byteOffset": 802512,
      "componentType": 5126,
      "count": 65532,
      "max": [
        0.9999908804893494,
        1.0,
        0.9999987483024597
      ],
      "min": [
        -0.9999966621398926,
        -0.9999696612358093,
        -0.9999969005584717
      ],
      "type": "VEC3"
    },
    {
      "bufferView": 1,
      "byteOffset": 5376,
      "componentType": 5126,
      "count": 65532,
      "max": [
        0.999442994594574,
        0.9888910055160522
      ],
      "min": [
        0.00012199999764561653,
        0.0003760000108741224
      ],
      "type": "VEC2"
    },
    {
      "bufferView": 0,
      "byteOffset": 2688,
      "componentType": 5125,
      "count": 286365,
      "type": "SCALAR"
    },
    {
      "bufferView": 2,
      "byteOffset": 1588896,
      "componentType": 5126,
      "count": 65532,
      "max": [
        8.898557662963867,
        -29.602624893188477,
        7.650986194610596
      ],
      "min": [
        -1.2994840145111084,
        -51.52407455444336,
        -4.50787878036499
      ],
      "type": "VEC3"
    },
    {
      "bufferView": 2,
      "byteOffset": 2375280,
      "componentType": 5126,
      "count": 65532,
      "max": [
        0.9999876618385315,
        0.9997114539146423,
        0.9999932646751404
      ],
      "min": [
        -0.9999920129776001,
        -0.9996044635772705,
        -0.9999949932098389
      ],
      "type": "VEC3"
    },
    {
      "bufferView": 1,
      "byteOffset": 529632,
      "componentType": 5126,
      "count": 65532,
      "max": [
        0.9996309876441956,
        0.9888910055160522
      ],
      "min": [
        0.00012199999764561653,
        0.00039599998854100704
      ],
      "type": "VEC2"
    },
    {
      "bufferView": 0,
      "byteOffset": 1148148,
      "componentType": 5125,
      "count": 260481,
      "type": "SCALAR"
    },
    {
      "bufferView": 2,
      "byteOffset": 3161664,
      "componentType": 5126,
      "count": 65532,
      "max": [
        8.810776710510254,
        -29.097362518310547,
        7.661046981811523
      ],
      "min": [
        -3.248522996902466,
        -66.80247497558594,
        -4.429533958435059
      ],
      "type": "VEC3"
    },
    {
      "bufferView": 2,
      "byteOffset": 3948048,
      "componentType": 5126,
      "count": 65532,
      "max": [
        0.9999929070472717,
        0.9999582171440125,
        0.999954342842102
      ],
      "min": [
        -0.9999978542327881,
        -0.9996708631515503,
        -0.9999966621398926
      ],
      "type": "VEC3"
    },
    {
      "bufferView": 1,
      "byteOffset": 1053888,
      "componentType": 5126,
      "count": 65532,
      "max": [
        0.9996259808540344,
        0.9918209910392761
      ],
      "min": [
        0.00012199999764561653,
        0.00039599998854100704
      ],
      "type": "VEC2"
    },
    {
      "bufferView": 0,
      "byteOffset": 2190072,
      "componentType": 5125,
      "count": 263718,
      "type": "SCALAR"
    },
    {
      "bufferView": 2,
      "byteOffset": 4734432,
      "componentType": 5126,
      "count": 65532,
      "max": [
        8.79757308959961,
        -27.856712341308594,
        7.58125114440918
      ],
      "min": [
        -3.379707098007202,
        -66.83989715576172,
        -4.436405181884766
      ],
      "type": "VEC3"
    },
    {
      "bufferView": 2,
      "byteOffset": 5520816,
      "componentType": 5126,
      "count": 65532,
      "max": [
        0.9999949932098389,
        0.9999978542327881,
        0.9999953508377075
      ],
      "min": [
        -0.9999947547912598,
        -0.9996243715286255,
        -0.999999463558197
      ],
      "type": "VEC3"
    },
    {
      "bufferView": 1,
      "byteOffset": 1578144,
      "componentType": 5126,
      "count": 65532,
      "max": [
        0.9996269941329956,
        0.994018018245697
      ],
      "min": [
        0.00012199999764561653,
        0.00036899998667649925
      ],
      "type": "VEC2"
    },
    {
      "bufferView": 0,
      "byteOffset": 3244944,
      "componentType": 5125,
      "count": 269907,
      "type": "SCALAR"
    },
    {
      "bufferView": 2,
      "byteOffset": 6307200,
      "componentType": 5126,
      "count": 65532,
      "max": [
        8.778166770935059,
        -27.85666275024414,
        7.686171054840088
      ],
      "min": [
        -3.3749029636383057,
        -66.88374328613281,
        -4.504095077514648
      ],
      "type": "VEC3"
    },
    {
      "bufferView": 2,
      "byteOffset": 7093584,
      "componentType": 5126,
      "count": 65532,
      "max": [
        0.9999991059303284,
        1.0,
        0.9999933838844299
      ],
      "min": [
        -0.9999790191650391,
        -0.9999594688415527,
        -0.9999969005584717
      ],
      "type": "VEC3"
    },
    {
      "bufferView": 1,
      "byteOffset": 2102400,
      "componentType": 5126,
      "count": 65532,
      "max": [
        0.9996330142021179,
        0.984233021736145
      ],
      "min": [
        0.00012199999764561653,
        0.0003699999942909926
      ],
      "type": "VEC2"
    },
    {
      "bufferView": 0,
      "byteOffset": 4324572,
      "componentType": 5125,
      "count": 243549,
      "type": "SCALAR"
    },
    {
      "bufferView": 2,
      "byteOffset": 7879968,
      "componentType": 5126,
      "count": 20929,
      "max": [
        1.3678979873657227,
        -33.05520248413086,
        7.260344982147217
      ],
      "min": [
        -3.2130799293518066,
        -66.59518432617188,
        -4.2595062255859375
      ],
      "type": "VEC3"
    },
    {
      "bufferView": 2,
      "byteOffset": 8131116,
      "componentType": 5126,
      "count": 20929,
      "max": [
        0.9974139928817749,
        0.9990692138671875,
        0.9999363422393799
      ],
      "min": [
        -0.9999752640724182,
        -0.9996708631515503,
        -0.9999553561210632
      ],
      "type": "VEC3"
    },
    {
      "bufferView": 1,
      "byteOffset": 2626656,
      "componentType": 5126,
      "count": 20929,
      "max": [
        0.9995269775390625,
        0.9870759844779968
      ],
      "min": [
        0.00012199999764561653,
        0.0003809999907389283
      ],
      "type": "VEC2"
    },
    {
      "bufferView": 0,
      "byteOffset": 5298768,
      "componentType": 5125,
      "count": 63192,
      "type": "SCALAR"
    }
  ],
  "asset": {
    "extras": {
      "author": "artfletch (https://sketchfab.com/artfletch)",
      "license": "CC-BY-4.0 (http://creativecommons.org/licenses/by/4.0/)",
      "source": "https://sketchfab.com/3d-models/india-marble-temple-pillar-ff71713f803d4fa68d2aa6d0f5b6e4b9",
      "title": "India Marble Temple Pillar"
    },
    "generator": "Sketchfab-15.25.0",
    "version": "2.0"
  },
  "bufferViews": [
    {
      "buffer": 0,
      "byteLength": 5551536,
      "name": "floatBufferViews",
      "target": 34963
    },
    {
      "buffer": 0,
      "byteLength": 2794088,
      "byteOffset": 5551536,
      "byteStride": 8,
      "name": "floatBufferViews",
      "target": 34962
    },
    {
      "buffer": 0,
      "byteLength": 8382264,
      "byteOffset": 8345624,
      "byteStride": 12,
      "name": "floatBufferViews",
      "target": 34962
    }
  ],
  "buffers": [
    {
      "byteLength": 16727888,
      "uri": "scene.bin"
    }
  ],
  "images": [
    {
      "uri": "textures/BMMarbleTemplePillar_Delit01BMMarbleTemplePillar_Delit01_baseColor.jpeg"
    }
  ],
  "materials": [
    {
      "doubleSided": true,
      "name": "BMMarbleTemplePillar_Delit01BMMarbleTemplePillar_Delit01",
      "pbrMetallicRoughness": {
        "baseColorTexture": {
          "index": 0
        },
        "metallicFactor": 0.0
      }
    }
  ],
  "meshes": [
    {
      "name": "Object_0",
      "primitives": [
        {
          "attributes": {
            "NORMAL": 1,
            "POSITION": 0,
            "TEXCOORD_0": 2
          },
          "indices": 3,
          "material": 0,
          "mode": 4
        }
      ]
    },
    {
      "name": "Object_1",
      "primitives": [
        {
          "attributes": {
            "NORMAL": 5,
            "POSITION": 4,
            "TEXCOORD_0": 6
          },
          "indices": 7,
          "material": 0,
          "mode": 4
        }
      ]
    },
    {
      "name": "Object_2",
      "primitives": [
        {
          "attributes": {
            "NORMAL": 9,
            "POSITION": 8,
            "TEXCOORD_0": 10
          },
          "indices": 11,
          "material": 0,
          "mode": 4
        }
      ]
    },
    {
      "name": "Object_3",
      "primitives": [
        {
          "attributes": {
            "NORMAL": 13,
            "POSITION": 12,
            "TEXCOORD_0": 14
          },
          "indices": 15,
          "material": 0,
          "mode": 4
        }
      ]
    },
    {
      "name": "Object_4",
      "primitives": [
        {
          "attributes": {
            "NORMAL": 17,
            "POSITION": 16,
            "TEXCOORD_0": 18
          },
          "indices": 19,
          "material": 0,
          "mode": 4
        }
      ]
    },
    {
      "name": "Object_5",
      "primitives": [
        {
          "attributes": {
            "NORMAL": 21,
            "POSITION": 20,
            "TEXCOORD_0": 22
          },
          "indices": 23,
          "material": 0,
          "mode": 4
        }
      ]
    },
    {
      "name": "Object_6",
      "primitives": [
        {
          "attributes": {
            "NORMAL": 25,
            "POSITION": 24,
            "TEXCOORD_0": 26
          },
          "indices": 27,
          "material": 0,
          "mode": 4
        }
      ]
    }
  ],
  "nodes": [
    {
      "children": [
        1
      ],
      "matrix": [
        1.0,
        0.0,
        0.0,
        0.0,
        0.0,
        -1.0,
        -4.440892098500626e-16,
        0.0,
        0.0,
        4.440892098500626e-16,
        -1.0,
        0.0,
        0.0,
        0.0,
        0.0,
        1.0
      ],
      "name": "Sketchfab_model"
    },
    {
      "children": [
        2,
        3,
        4,
        5,
        6,
        7,
        8
      ],
      "name": "BMMarbleTemplePillar02.obj.cleaner.materialmerger.gles"
    },
    {
      "mesh": 0,
      "name": "Object_2"
    },
    {
      "mesh": 1,
      "name": "Object_3"
    },
    {
      "mesh": 2,
      "name": "Object_4"
    },
    {
      "mesh": 3,
      "name": "Object_5"
    },
    {
      "mesh": 4,
      "name": "Object_6"
    },
    {
      "mesh": 5,
      "name": "Object_7"
    },
    {
      "mesh": 6,
      "name": "Object_8"
    }
  ],
  "samplers": [
    {
      "magFilter": 9729,
      "minFilter": 9987,
      "wrapS": 10497,
      "wrapT": 10497
    }
  ],
  "scene": 0,
  "scenes": [
    {
      "name": "Sketchfab_Scene",
      "nodes": [
        0
      ]
    }
  ],
  "textures": [
    {
      "sampler": 0,
      "source": 0
    }
  ]
}
